<svg type="image/svg+xml" version="1.1" xmlns="http://www.w3.org/2000/svg"
     x="0px" y="0px" viewBox="0 0 400 50" xml:space="preserve">
  <defs>
          <linearGradient id="grad1" x1="0%" y1="0%" x2="100%" y2="0%">
            <stop offset="0%" style="stop-color:#005a9e;stop-opacity:1"/>
              <stop offset="100%" style="stop-color:#2b88d8;stop-opacity:0.7"/>
          </linearGradient>
  </defs>
    <style type="text/css">
    .st0{fill:url(#grad1);}
    .st1{fill:#CCCCCC;}
    .st2{fill:#015c9f;}
    .st3{fill:#deecf9;}
  </style>
    <g>
    <rect x="30" y="10" class="st3" width="340" height="36" rx="20" ry="20 "/>
  </g>
    <g>
    <rect x="30" y="10" class="st0" width="15" height="36" rx="20" ry="20">
      <animate
              dur="3s"
              repeatCount="indefinite"
              calcMode="linear"
              attributeName="width"
              values="30;170;340;340"/>
    </rect>
  </g>
    <g transform="translate(25, 9) scale(0.8)">
<path xmlns="http://www.w3.org/2000/svg"
      d="M33.9998 10C34.552 10 34.9998 10.4477 34.9998 11V13C34.9998 13.5523 34.552 14 33.9998 14C33.4475 14 32.9998 13.5523 32.9998 13V11C32.9998 10.4477 33.4475 10 33.9998 10ZM33.9998 31C37.8658 31 40.9998 27.866 40.9998 24C40.9998 20.134 37.8658 17 33.9998 17C30.1338 17 26.9998 20.134 26.9998 24C26.9998 27.866 30.1338 31 33.9998 31ZM33.9998 29C31.2383 29 28.9998 26.7614 28.9998 24C28.9998 21.2386 31.2383 19 33.9998 19C36.7612 19 38.9998 21.2386 38.9998 24C38.9998 26.7614 36.7612 29 33.9998 29ZM46.9998 25C47.552 25 47.9998 24.5523 47.9998 24C47.9998 23.4477 47.552 23 46.9998 23H44.9998C44.4475 23 43.9998 23.4477 43.9998 24C43.9998 24.5523 44.4475 25 44.9998 25H46.9998ZM33.9998 34C34.552 34 34.9998 34.4477 34.9998 35V37.0005C34.9998 37.5528 34.552 38.0005 33.9998 38.0005C33.4475 38.0005 32.9998 37.5528 32.9998 37.0005V35C32.9998 34.4477 33.4475 34 33.9998 34ZM22.9998 25C23.552 25 23.9998 24.5523 23.9998 24C23.9998 23.4477 23.552 23 22.9998 23H20.9995C20.4472 23 19.9995 23.4477 19.9995 24C19.9995 24.5523 20.4472 25 20.9995 25H22.9998ZM23.2927 13.2937C23.6832 12.9032 24.3163 12.9032 24.7069 13.2937L26.7069 15.2937C27.0974 15.6842 27.0974 16.3174 26.7069 16.7079C26.3163 17.0984 25.6832 17.0984 25.2927 16.7079L23.2927 14.7079C22.9021 14.3174 22.9021 13.6842 23.2927 13.2937ZM24.7069 34.708C24.3163 35.0985 23.6832 35.0985 23.2927 34.708C22.9021 34.3175 22.9021 33.6843 23.2927 33.2938L25.2927 31.2938C25.6832 30.9033 26.3163 30.9033 26.7069 31.2938C27.0974 31.6843 27.0974 32.3175 26.7069 32.708L24.7069 34.708ZM44.7069 13.2937C44.3163 12.9032 43.6832 12.9032 43.2927 13.2937L41.2927 15.2937C40.9021 15.6842 40.9021 16.3174 41.2927 16.7079C41.6832 17.0984 42.3163 17.0984 42.7069 16.7079L44.7069 14.7079C45.0974 14.3174 45.0974 13.6842 44.7069 13.2937ZM41.2927 32.708L43.2927 34.708C43.6832 35.0985 44.3163 35.0985 44.7069 34.708C45.0974 34.3175 45.0974 33.6843 44.7069 33.2938L42.7069 31.2938C42.3163 30.9033 41.6832 30.9033 41.2927 31.2938C40.9021 31.6843 40.9021 32.3175 41.2927 32.708Z"
      fill="white"/> </g>
</svg>